<svg version="1.1" xmlns="http://www.w3.org/2000/svg" style="display: block;" viewBox="0 0 2048 817" width="1000" height="399" preserveAspectRatio="none">
  <defs>
    <mask id="cutout-mask" maskUnits="userSpaceOnUse">
      <rect x="0" y="0" width="2048" height="817" fill="white"/>
      <path transform="translate(0,0)" fill="black" d="M 1317.49 400.558 C 1348.78 396.382 1377.53 418.39 1381.67 449.694 C 1385.81 480.997 1363.77 509.721 1332.46 513.823 C 1301.21 517.917 1272.54 495.92 1268.41 464.669 C 1264.28 433.418 1286.24 404.727 1317.49 400.558 z"/>
      <path transform="translate(0,0)" fill="black" d="M 1623.07 397.366 C 1632.93 397.178 1663.76 401.911 1660.93 416.118 C 1657.63 420.658 1604.21 445.25 1594.62 449.793 C 1585.2 454.381 1575.74 458.89 1566.24 463.319 C 1564.43 426.38 1585.95 400.532 1623.07 397.366 z"/>
    </mask>
  </defs>

  <g id="left-icon" transform="translate(20,-1) scale(0.4)">
    <path transform="translate(0,0)" fill="rgb(251,234,208)" d="M 613.527 936.215 C 614.222 919.686 614.756 902.994 617.588 886.665 C 627.608 828.884 658.552 775.194 701.545 735.614 C 782.889 660.727 904.317 635.576 1011.98 640.2 C 1054.7 642.034 1168.17 659.045 1196.69 689.987 C 1205.39 699.424 1209.97 711.68 1209.18 724.528 C 1208.47 736.165 1204.29 746.659 1197.67 756.164 C 1187.28 771.101 1172.11 784.055 1159.29 796.977 L 1095.8 860.719 C 1052.22 904.384 1013 943.292 999.305 1006.3 C 997.544 1014.41 996.159 1027.02 993.824 1034.31 C 994.437 1056.49 993.519 1078.73 994.222 1100.82 C 992.799 1149.29 996.227 1184.03 1031.7 1221.73 C 1057.06 1248.57 1092.04 1264.25 1128.95 1265.32 C 1157.97 1266.29 1186.57 1258.23 1210.81 1242.24 C 1213.81 1240.26 1230.78 1227.78 1232.07 1227.14 C 1263 1226.5 1283.3 1237.1 1305.15 1258.84 C 1348.22 1301.69 1391.11 1344.9 1434.1 1387.83 L 1482.37 1436.08 C 1495.89 1449.63 1512.7 1465.38 1523.02 1481.08 C 1535.48 1500.08 1542.39 1522.18 1542.99 1544.9 C 1544 1579.83 1530.8 1613.69 1506.42 1638.74 C 1475.01 1671.18 1429.77 1685.85 1385.48 1685.79 C 1330.78 1685.72 1289.27 1667.07 1251.06 1628.9 C 1203.27 1581.17 1156.37 1532.9 1108.7 1485.31 L 1058.93 1435.76 C 1031.07 1407.99 1010.39 1389.53 1003.81 1348.7 C 1003.08 1354.04 1002.81 1360.05 1003.03 1365.43 C 1004.36 1397.59 1000.77 1434.53 1004.07 1466.2 C 1009.24 1515.86 1050.47 1553.3 1084 1586.06 C 1095.76 1597.54 1108.92 1608.28 1113.38 1625.03 C 1120.62 1651.91 1102.39 1678.51 1075.6 1683.85 C 1060.73 1686.82 1046.61 1686.28 1031.7 1685.93 C 959.683 1684.1 889.49 1662.89 828.509 1624.53 C 729.972 1564.15 659.864 1466.68 633.973 1354.06 C 617.219 1280.05 614.132 1190.8 669.883 1132.15 C 691.765 1109.14 723.077 1089.9 754.187 1083.06 C 742.883 1082.53 731.953 1082.94 720.499 1082.19 C 715.592 1081.9 708.179 1082.1 703.075 1082.07 C 703.338 1036.03 687.923 998.196 655.812 965.105 C 642.179 950.933 631.265 943.961 613.527 936.215 z"/>
    <path transform="translate(0,0)" fill="rgb(6,109,125)" d="M 720.499 1082.19 C 741.971 1082.08 757.802 1081.32 778.555 1078.57 C 894.415 1063.2 1005.16 1142.8 1003 1264.81 C 1002.58 1288.44 1001.57 1325.47 1003.81 1348.7 C 1003.08 1354.04 1002.81 1360.05 1003.03 1365.43 C 1004.36 1397.59 1000.77 1434.53 1004.07 1466.2 C 1009.24 1515.86 1050.47 1553.3 1084 1586.06 C 1095.76 1597.54 1108.92 1608.28 1113.38 1625.03 C 1120.62 1651.91 1102.39 1678.51 1075.6 1683.85 C 1060.73 1686.82 1046.61 1686.28 1031.7 1685.93 C 959.683 1684.1 889.49 1662.89 828.509 1624.53 C 729.972 1564.15 659.864 1466.68 633.973 1354.06 C 617.219 1280.05 614.132 1190.8 669.883 1132.15 C 691.765 1109.14 723.077 1089.9 754.187 1083.06 C 742.883 1082.53 731.953 1082.94 720.499 1082.19 z"/>
    <path transform="translate(0,0)" fill="rgb(46,149,147)" d="M 613.527 936.215 C 614.222 919.686 614.756 902.994 617.588 886.665 C 627.608 828.884 658.552 775.194 701.545 735.614 C 782.889 660.727 904.317 635.576 1011.98 640.2 C 1054.7 642.034 1168.17 659.045 1196.69 689.987 C 1205.39 699.424 1209.97 711.68 1209.18 724.528 C 1208.47 736.165 1204.29 746.659 1197.67 756.164 C 1187.28 771.101 1172.11 784.055 1159.29 796.977 L 1095.8 860.719 C 1052.22 904.384 1013 943.292 999.305 1006.3 C 997.544 1014.41 996.159 1027.02 993.824 1034.31 C 991.399 1019.18 988.899 1002.18 983.9 987.784 C 968.401 943.817 936.088 907.797 894.056 887.632 C 807.684 846.237 698.064 876.419 655.812 965.105 C 642.179 950.933 631.265 943.961 613.527 936.215 z"/>
    <path transform="translate(0,0)" fill="rgb(0,47,61)" d="M 784.911 913.179 C 796.754 912.078 800.562 912.939 811.739 916.115 C 803.326 920.496 796.207 926.837 798.655 937.38 C 799.713 941.866 802.59 945.71 806.596 947.99 C 810.533 950.27 815.242 950.806 819.592 949.471 C 826.31 947.373 828.311 943.597 831.618 937.837 C 836.814 958.792 833.886 972.467 817.289 987.142 C 804.451 995.987 788.399 998.582 774.137 991.423 C 763.718 986.164 755.944 976.823 752.665 965.621 C 749.491 954.455 751.038 942.476 756.944 932.482 C 763.596 921.43 772.882 916.237 784.911 913.179 z"/>
    <path transform="translate(0,0)" fill="rgb(252,183,57)" d="M 994.222 1100.82 L 994.49 1100 C 995.331 1097.37 995.62 1095.67 996.16 1093.03 C 1006.42 1043.04 1045.51 1011.6 1080.25 976.491 L 1190.62 865.606 L 1299.39 756.33 C 1319.4 736.241 1345.75 706.66 1368.49 691.175 C 1433.03 647.221 1530.53 657.227 1576.1 724.452 C 1596.16 754.418 1603.41 791.157 1596.24 826.495 C 1586.88 874.948 1562.52 897.242 1529.42 930.22 L 1477.61 982.01 L 1289.07 1170.52 C 1282.66 1176.94 1233.64 1224.23 1232.07 1227.14 C 1230.78 1227.78 1213.81 1240.26 1210.81 1242.24 C 1186.57 1258.23 1157.97 1266.29 1128.95 1265.32 C 1092.04 1264.25 1057.06 1248.57 1031.7 1221.73 C 996.227 1184.03 992.799 1149.29 994.222 1100.82 z"/>
    <path transform="translate(0,0)" fill="rgb(252,183,57)" d="M 992.931 341.415 C 1010.39 341.192 1027.22 347.877 1039.77 360.014 C 1070.09 388.922 1063.39 430.379 1063.93 467.952 C 1064.07 477.781 1065.93 488.513 1073.86 495.511 C 1098.41 517.161 1126.21 484.596 1148.1 472.688 C 1161.18 464.664 1174.79 458.636 1190.38 457.809 C 1222.76 456.093 1251.33 483.45 1250.78 516.115 C 1250.25 547.836 1226.24 579.461 1204.87 600.966 C 1176.93 629.082 1150.91 621.035 1117.27 611.901 C 1103.61 608.317 1089.84 605.152 1075.99 602.412 C 1053.26 597.916 1020.23 595.305 996.812 594.928 C 958.197 594.902 919.707 599.315 882.099 608.08 C 851.975 614.838 817.287 632.074 789.611 608.503 C 756.995 580.725 715.507 521.145 749.695 479.75 C 757.414 470.447 767.778 463.709 779.414 460.43 C 832.969 444.896 865.627 506.712 898.495 502.772 C 909.602 501.441 918.319 493.155 921.59 482.663 C 926.657 466.406 921.892 430.321 924.222 410.798 C 926.173 394.442 931.966 378.315 942.662 365.612 C 956.6 349.06 971.747 343.273 992.931 341.415 z"/>
    <path transform="translate(0,0)" fill="rgb(252,183,57)" d="M 703.075 1082.07 C 658.79 1082.52 614.463 1082.07 570.173 1082.06 C 544.918 1082.05 505.825 1084.94 482.266 1079.44 C 471.971 1077.04 461.251 1072.43 455.751 1062.86 C 452.193 1056.67 452.006 1049.54 454.141 1042.83 C 462.365 1016.99 545.54 956.092 571.46 942.293 C 584.689 935.25 598.849 931.732 613.527 936.215 C 631.265 943.961 642.179 950.933 655.812 965.105 C 687.923 998.196 703.338 1036.03 703.075 1082.07 z"/>
  </g>

  <g mask="url(#cutout-mask)">
    <rect x="0" y="0" width="2048" height="817" fill="none"/>
    <path transform="translate(0,0)" fill="rgb(253,238,217)" d="M 1313.66 356.313 C 1332.5 353.543 1354.8 357.95 1371.61 366.815 C 1395 379.216 1412.46 400.457 1420.1 425.805 C 1422.21 432.719 1423.54 439.851 1424.05 447.064 C 1424.96 458.565 1424.37 478.277 1424.35 490.469 C 1424.31 507.422 1425.44 534.774 1422.79 550.825 C 1420.72 562.96 1416.69 574.678 1410.87 585.524 C 1398.12 609.46 1376.26 627.249 1350.24 634.875 C 1321.14 643.46 1289.83 640.181 1263.15 625.756 C 1252.91 620.169 1236.89 609.725 1233.98 597.743 C 1230.23 582.359 1239.8 574 1253.42 570.956 C 1270.77 572.283 1281.31 595.965 1310.02 597.297 C 1351.06 599.202 1377 578.635 1381.56 538.054 C 1366.98 547.629 1356.94 552.978 1339.39 555.823 C 1313.7 559.843 1287.47 553.559 1266.39 538.337 C 1244.71 522.572 1230.26 498.775 1226.27 472.272 C 1222.11 445.464 1228.75 418.099 1244.74 396.185 C 1261.92 372.745 1285.43 360.709 1313.66 356.313 z"/>
    <path transform="translate(0,0)" fill="rgb(253,238,217)" d="M 1612.91 356.358 C 1646.87 352.17 1681.16 365.823 1701.69 393.255 C 1710.42 404.926 1721.61 423.582 1707.8 436.25 C 1700.96 442.526 1687.61 447.959 1679.02 452.092 L 1618.75 481.021 C 1610.25 485.098 1592.2 493.119 1585.42 498.076 L 1585.06 498.337 C 1586.82 500 1588.6 501.565 1590.56 502.986 C 1610.91 517.567 1638.02 518.506 1659.32 505.368 C 1674.59 495.879 1684.59 480.835 1702.76 494.84 C 1714.54 510.39 1706.46 521.481 1693.52 531.722 C 1656.41 561.111 1602.07 564.076 1563.6 535.621 C 1542.47 519.999 1528.42 496.622 1524.53 470.635 C 1520.52 444.359 1527.18 417.57 1543.03 396.232 C 1560.61 372.641 1584.25 360.513 1612.91 356.358 z"/>
    <path transform="translate(0,0)" fill="rgb(253,238,217)" d="M 730.147 285.114 C 730.741 285.066 731.336 285.032 731.931 285.014 C 760.327 284.18 757.152 309.335 757.08 329.119 C 757.05 337.284 757.028 345.53 757.018 353.7 L 757.037 454.814 C 788.669 426.73 819.151 397.113 850.565 368.761 C 858.547 361.557 862.156 358.194 872.646 355.463 C 884.317 358.11 894.693 364.589 894.134 377.863 C 893.547 391.792 873.752 405.861 863.744 414.953 L 815.227 459.137 C 827.997 469.802 840.749 480.882 853.416 491.702 C 864.207 500.715 879.616 511.637 886.869 523.641 C 897.484 538.908 874.135 559.471 860.71 552.095 C 845.277 543.615 827.989 524.864 814.187 514.027 C 801.507 504.072 787.007 485.698 768.903 494.595 C 746.82 505.449 767.793 541.141 744.49 551.475 C 738.622 554.01 731.984 554.095 726.053 551.712 C 717.346 548.139 713.283 540.156 713.139 531.031 C 712.927 517.655 713.014 504.272 713.012 490.894 L 713.028 413.547 C 713.185 393.879 713.209 374.21 713.1 354.542 C 712.948 339.965 712.45 325.268 712.788 310.705 C 713.1 297.294 718.194 290.138 730.147 285.114 z"/>
    <path transform="translate(0,0)" fill="rgb(253,238,217)" d="M 1090.51 356.281 C 1103.98 355.243 1113.74 355.224 1127.01 358.733 C 1151.4 365.268 1172.16 381.294 1184.66 403.235 C 1190.45 413.278 1194.41 424.263 1196.37 435.684 C 1198.46 447.876 1199.74 526.503 1196.58 537.86 C 1195.01 543.52 1191.8 547.836 1186.61 550.699 C 1181.6 553.465 1175.36 554.443 1169.83 552.759 C 1163.07 550.667 1157.73 545.447 1155.49 538.734 C 1152.56 530.25 1154.25 522.461 1153.75 513.946 C 1151.23 471.645 1168.69 417.186 1114.72 401.399 C 1084.97 394.202 1055.34 413.815 1050.78 443.946 C 1049.23 454.194 1049.68 464.785 1049.73 475.128 L 1049.96 513.97 C 1050 527.787 1050.66 550.709 1032.99 553.278 C 1012.37 555.706 1004.29 540.827 1005.7 522.528 C 1007.88 494.488 1002.48 459.467 1008.33 432.482 C 1011.22 419.007 1016.84 406.264 1024.82 395.033 C 1041.11 372.425 1063.45 360.716 1090.51 356.281 z"/>
    <path transform="translate(0,0)" fill="rgb(253,238,217)" d="M 1767.95 301.142 C 1769.85 301.016 1771.75 300.936 1773.65 300.903 C 1801.53 300.586 1794.68 344.267 1794.63 362.975 C 1804.51 362.865 1834.64 360.143 1842.57 368.832 C 1854.35 381.749 1847.36 401.62 1828.63 402.798 C 1818.37 403.444 1805.85 403.108 1794.61 403.037 L 1794.46 463.681 C 1794.43 472.273 1793.81 490.488 1795.31 498.121 C 1795.96 501.393 1797.54 504.41 1799.85 506.812 C 1808.03 515.364 1822.67 512.942 1834.85 513.115 C 1847.25 520.238 1850.3 527.453 1846.89 541.014 C 1837.13 555.203 1827.24 552.869 1812.57 552.913 C 1784.85 553.335 1761.34 536.423 1755.05 509.034 C 1751.67 494.352 1752.82 477.03 1752.85 461.818 L 1753.01 403.037 C 1743.82 403.076 1736.58 403.705 1729.35 396.527 C 1725.61 392.834 1723.57 387.754 1723.71 382.498 C 1723.85 377.452 1726.02 372.675 1729.72 369.242 C 1737.1 362.334 1743.78 362.843 1752.98 363.039 C 1752.87 349.476 1751.26 327.422 1754.52 314.685 C 1756.35 307.532 1761.74 304.133 1767.95 301.142 z"/>
    <path transform="translate(0,0)" fill="rgb(253,238,217)" d="M 1470.31 285.119 C 1474.18 284.895 1478.28 284.895 1481.97 286.212 C 1487.41 288.158 1492.08 291.871 1494.55 297.181 C 1496.6 301.598 1496.7 308.187 1496.91 313.006 C 1497.97 337.451 1498.59 531.276 1495.1 540.086 C 1492.46 546.743 1486.8 550.443 1480.48 553.06 C 1476.17 553.256 1471.8 553.591 1467.66 552.182 C 1461.92 550.236 1457.8 546.696 1455.22 541.17 C 1453.38 537.208 1453.42 530.932 1453.25 526.598 C 1452.3 501.848 1451.45 307.649 1454.74 298.853 C 1457.45 291.604 1463.72 288.165 1470.31 285.119 z"/>
    <path transform="translate(0,0)" fill="rgb(253,238,217)" d="M 947.239 356.152 C 950.947 355.724 954.909 356.036 958.443 357.231 C 964.08 359.137 969.033 363.059 971.607 368.5 C 973.526 372.557 973.573 378.216 973.783 382.654 C 974.645 400.924 975.52 532.026 972.22 540.194 C 969.433 547.091 963.681 550.484 957.189 553.186 C 952.732 553.806 947.96 553.633 943.723 552.051 C 938.789 550.208 934.147 546.45 932.04 541.519 C 928.609 533.493 928.218 377.569 931.616 369.226 C 934.386 362.427 940.856 358.848 947.239 356.152 z"/>
    <path transform="translate(0,0)" fill="rgb(254,183,63)" d="M 946.733 285.583 C 955.003 283.734 963.624 286.531 969.234 292.881 C 974.844 299.232 976.555 308.132 973.7 316.11 C 970.845 324.089 963.876 329.882 955.511 331.232 C 943.1 333.235 931.345 325.012 928.972 312.667 C 926.598 300.322 934.465 288.326 946.733 285.583 z"/>
  </g>
</svg>