<svg viewBox="560 750 820 620" xmlns="http://www.w3.org/2000/svg" width="32" height="32">
  <path fill="#0B3C49" d="M 650.581 1209.36 C 685.644 1206.09 716.67 1231.98 719.711 1267.07 C 722.752 1302.15 696.644 1333 661.54 1335.81 C 626.768 1338.59 596.273 1312.78 593.261 1278.03 C 590.249 1243.28 615.85 1212.61 650.581 1209.36 z"/>
  <path fill="#0B3C49" d="M 833.864 781.478 C 853.488 781.713 883.51 779.436 902.27 783.814 C 906.412 784.781 911.91 791.841 912.701 796.505 C 915.111 810.718 913.394 841.961 913.856 854.417 C 914.789 879.566 911.996 1081.96 915.158 1089.98 C 918.198 1092.83 916.463 1092 920.508 1092.63 C 926.491 1090.58 959.064 1049.28 965.813 1041.48 C 981.198 1023.54 998.249 1002.03 1013.46 984.429 C 1022.85 973.565 1043.68 943.492 1057.32 943.719 C 1078.14 944.066 1115.4 940.738 1135.36 943.333 C 1174.6 948.435 1132.4 988.108 1123.19 998.664 L 1061.04 1070.4 C 1050.25 1082.89 1029.72 1103.62 1024.2 1118.16 C 1022.38 1122.96 1059.83 1167.36 1064.73 1173.49 L 1141.47 1269.4 C 1151.03 1281.29 1173.36 1304.49 1174.42 1318.99 C 1175.93 1339.65 1135.22 1334.82 1123.46 1334.48 C 1106.06 1333.97 1077.13 1338.26 1062.75 1329.66 C 1055.8 1325.5 1038.81 1301.65 1033 1294.12 L 978.274 1223.26 C 970.894 1213.7 963.544 1204.07 956.062 1194.6 C 952.319 1189.86 946.948 1181.7 940.779 1181.57 C 932.832 1185.45 919.228 1201.49 914.19 1209.03 C 912.901 1233.72 914.585 1258.97 913.937 1283.83 C 913.497 1300.71 919.636 1332.71 894.53 1334.32 C 881.997 1335.13 867.345 1334.71 855.349 1334.89 C 838.222 1335.15 808.843 1338.22 810.295 1313.65 C 809.71 1287.45 809.845 1261.88 809.861 1235.91 L 809.856 1087.62 L 809.85 896.65 C 809.851 864.302 809.657 831.91 810.06 799.571 C 810.224 786.376 822.912 782.069 833.864 781.478 z"/>
  <path fill="#0B3C49" d="M 1263.36 781.465 C 1279.79 781.458 1327.57 778.114 1339.49 786.645 C 1343.79 789.73 1344.48 791.83 1345.25 796.941 C 1348.3 817.097 1346.67 839.107 1346.67 859.502 L 1346.65 970.603 L 1346.67 1195.86 C 1346.67 1232.5 1346.77 1269.14 1346.72 1305.78 C 1346.7 1323.22 1344.96 1331.81 1325.79 1334.6 C 1308.27 1334.72 1263.59 1338.32 1250.65 1329.77 C 1246.83 1327.25 1245.65 1325.24 1244.78 1320.75 C 1241 1301.17 1243.06 1278.5 1243.06 1258.55 L 1243.08 1150.16 L 1243.07 919.964 C 1243.08 880.882 1242.99 841.637 1243.2 802.551 C 1243.22 798.135 1244.18 793.203 1246.9 789.627 C 1251.29 783.841 1256.64 782.49 1263.36 781.465 z"/>
</svg>
