<svg version="1.1" xmlns="http://www.w3.org/2000/svg" style="display: block;" viewBox="0 0 2048 2048" width="1000" height="1000" preserveAspectRatio="none">
<path transform="translate(0,0)" fill="rgba(255, 0, 0, 0)" d="M 0 0 L 2048 0 L 2048 2048 L 0 2048 L 0 0 z"/>
<path transform="translate(0,0)" fill="rgb(11,60,73)" d="M 390.058 1490.09 L 390.057 712.753 L 390.087 469.362 L 390.075 397.087 C 390.052 379.847 389.751 362.84 391.097 345.375 C 396.643 274.34 458.944 207.047 529.962 197.596 C 565.284 192.895 612.784 195.197 649.728 195.2 L 867.926 195.174 L 1071.75 195.222 C 1090.11 195.271 1108.47 195.228 1126.83 195.092 C 1138.63 195.03 1150.92 194.674 1162.67 195.645 C 1168.94 196.164 1170.57 197.49 1174.31 202.166 C 1179.47 202.469 1182.32 204.988 1185.9 208.505 C 1218.66 240.668 1250.61 274.29 1282.58 307.162 L 1444.15 472.788 L 1571.7 602.282 C 1593.17 624.412 1642.31 665.746 1643.25 697.239 C 1660.73 726.105 1656.43 758.019 1656.98 790.357 C 1657.19 802.765 1656.95 815.315 1656.94 827.737 L 1656.92 984.124 L 1656.93 1489.96 L 1656.97 1598.36 C 1657.06 1669.34 1662.4 1720.88 1608.18 1776.17 C 1552.69 1832.74 1496.4 1827.04 1424.98 1826.96 L 1288.89 1826.92 L 762.69 1826.95 L 614.976 1826.94 C 590.115 1826.89 545.805 1828.37 523.484 1823.19 C 491.664 1815.94 462.53 1799.87 439.424 1776.83 C 417.263 1754.47 401.709 1726.42 394.48 1695.78 C 388.341 1669.82 390.06 1631.22 390.055 1603.22 L 390.058 1490.09 z"/>
<path transform="translate(0,0)" fill="rgb(232,170,59)" d="M 1656.93 1489.96 L 1656.97 1598.36 C 1657.06 1669.34 1662.4 1720.88 1608.18 1776.17 C 1552.69 1832.74 1496.4 1827.04 1424.98 1826.96 L 1288.89 1826.92 L 762.69 1826.95 L 614.976 1826.94 C 590.115 1826.89 545.805 1828.37 523.484 1823.19 C 491.664 1815.94 462.53 1799.87 439.424 1776.83 C 417.263 1754.47 401.709 1726.42 394.48 1695.78 C 388.341 1669.82 390.06 1631.22 390.055 1603.22 L 390.058 1490.09 L 727.316 1490.1 L 832.862 1490.07 C 847.932 1490.03 886.091 1488.16 901.056 1492.09 C 906.68 1493.57 924.297 1513.53 929.845 1519.39 L 983.288 1575.99 C 990.811 1584.02 1013.92 1611.52 1023.5 1613.35 C 1027.91 1612.5 1031.56 1610.31 1034.74 1607.17 C 1044.58 1597.48 1054.16 1586.68 1063.64 1576.61 C 1087.49 1551.27 1111.22 1525.77 1135.03 1500.41 C 1139.65 1495.48 1145.09 1491.11 1151.9 1490.62 C 1168.61 1489.39 1187.11 1489.96 1203.9 1490.01 L 1300.89 1490.08 L 1656.93 1489.96 z"/>
<path transform="translate(0,0)" fill="rgb(249,239,223)" d="M 1174.31 202.166 C 1179.47 202.469 1182.32 204.988 1185.9 208.505 C 1218.66 240.668 1250.61 274.29 1282.58 307.162 L 1444.15 472.788 L 1571.7 602.282 C 1593.17 624.412 1642.31 665.746 1643.25 697.239 C 1617.56 662.713 1580.98 669.934 1542.2 669.939 L 1398.88 669.977 C 1368.18 669.99 1317.31 672.293 1289.56 665.315 C 1263.67 658.645 1239.97 645.318 1220.82 626.658 C 1200.58 607.266 1186.19 582.581 1179.3 555.412 C 1172.95 529.384 1174.4 510.251 1174.46 483.848 L 1174.56 422.801 C 1174.64 349.827 1175.26 275.065 1174.31 202.166 z"/>
<path transform="translate(0,0)" fill="rgb(249,239,223)" d="M 833.864 781.478 C 853.488 781.713 883.51 779.436 902.27 783.814 C 906.412 784.781 911.91 791.841 912.701 796.505 C 915.111 810.718 913.394 841.961 913.856 854.417 C 914.789 879.566 911.996 1081.96 915.158 1089.98 C 918.198 1092.83 916.463 1092 920.508 1092.63 C 926.491 1090.58 959.064 1049.28 965.813 1041.48 C 981.198 1023.54 998.249 1002.03 1013.46 984.429 C 1022.85 973.565 1043.68 943.492 1057.32 943.719 C 1078.14 944.066 1115.4 940.738 1135.36 943.333 C 1174.6 948.435 1132.4 988.108 1123.19 998.664 L 1061.04 1070.4 C 1050.25 1082.89 1029.72 1103.62 1024.2 1118.16 C 1022.38 1122.96 1059.83 1167.36 1064.73 1173.49 L 1141.47 1269.4 C 1151.03 1281.29 1173.36 1304.49 1174.42 1318.99 C 1175.93 1339.65 1135.22 1334.82 1123.46 1334.48 C 1106.06 1333.97 1077.13 1338.26 1062.75 1329.66 C 1055.8 1325.5 1038.81 1301.65 1033 1294.12 L 978.274 1223.26 C 970.894 1213.7 963.544 1204.07 956.062 1194.6 C 952.319 1189.86 946.948 1181.7 940.779 1181.57 C 932.832 1185.45 919.228 1201.49 914.19 1209.03 C 912.901 1233.72 914.585 1258.97 913.937 1283.83 C 913.497 1300.71 919.636 1332.71 894.53 1334.32 C 881.997 1335.13 867.345 1334.71 855.349 1334.89 C 838.222 1335.15 808.843 1338.22 810.295 1313.65 C 809.71 1287.45 809.845 1261.88 809.861 1235.91 L 809.856 1087.62 L 809.85 896.65 C 809.851 864.302 809.657 831.91 810.06 799.571 C 810.224 786.376 822.912 782.069 833.864 781.478 z"/>
<path transform="translate(0,0)" fill="rgb(249,239,223)" d="M 1263.36 781.465 C 1279.79 781.458 1327.57 778.114 1339.49 786.645 C 1343.79 789.73 1344.48 791.83 1345.25 796.941 C 1348.3 817.097 1346.67 839.107 1346.67 859.502 L 1346.65 970.603 L 1346.67 1195.86 C 1346.67 1232.5 1346.77 1269.14 1346.72 1305.78 C 1346.7 1323.22 1344.96 1331.81 1325.79 1334.6 C 1308.27 1334.72 1263.59 1338.32 1250.65 1329.77 C 1246.83 1327.25 1245.65 1325.24 1244.78 1320.75 C 1241 1301.17 1243.06 1278.5 1243.06 1258.55 L 1243.08 1150.16 L 1243.07 919.964 C 1243.08 880.882 1242.99 841.637 1243.2 802.551 C 1243.22 798.135 1244.18 793.203 1246.9 789.627 C 1251.29 783.841 1256.64 782.49 1263.36 781.465 z"/>
<path transform="translate(0,0)" fill="rgb(249,239,223)" d="M 650.581 1209.36 C 685.644 1206.09 716.67 1231.98 719.711 1267.07 C 722.752 1302.15 696.644 1333 661.54 1335.81 C 626.768 1338.59 596.273 1312.78 593.261 1278.03 C 590.249 1243.28 615.85 1212.61 650.581 1209.36 z"/>
</svg>