<svg version="1.1" xmlns="http://www.w3.org/2000/svg" style="display: block;" viewBox="400 290 1250 1450" width="1000" height="1000" preserveAspectRatio="xMidYMid meet">
<path transform="translate(0,0)" fill="rgb(251,234,208)" d="M 613.527 936.215 C 614.222 919.686 614.756 902.994 617.588 886.665 C 627.608 828.884 658.552 775.194 701.545 735.614 C 782.889 660.727 904.317 635.576 1011.98 640.2 C 1054.7 642.034 1168.17 659.045 1196.69 689.987 C 1205.39 699.424 1209.97 711.68 1209.18 724.528 C 1208.47 736.165 1204.29 746.659 1197.67 756.164 C 1187.28 771.101 1172.11 784.055 1159.29 796.977 L 1095.8 860.719 C 1052.22 904.384 1013 943.292 999.305 1006.3 C 997.544 1014.41 996.159 1027.02 993.824 1034.31 C 994.437 1056.49 993.519 1078.73 994.222 1100.82 C 992.799 1149.29 996.227 1184.03 1031.7 1221.73 C 1057.06 1248.57 1092.04 1264.25 1128.95 1265.32 C 1157.97 1266.29 1186.57 1258.23 1210.81 1242.24 C 1213.81 1240.26 1230.78 1227.78 1232.07 1227.14 C 1263 1226.5 1283.3 1237.1 1305.15 1258.84 C 1348.22 1301.69 1391.11 1344.9 1434.1 1387.83 L 1482.37 1436.08 C 1495.89 1449.63 1512.7 1465.38 1523.02 1481.08 C 1535.48 1500.08 1542.39 1522.18 1542.99 1544.9 C 1544 1579.83 1530.8 1613.69 1506.42 1638.74 C 1475.01 1671.18 1429.77 1685.85 1385.48 1685.79 C 1330.78 1685.72 1289.27 1667.07 1251.06 1628.9 C 1203.27 1581.17 1156.37 1532.9 1108.7 1485.31 L 1058.93 1435.76 C 1031.07 1407.99 1010.39 1389.53 1003.81 1348.7 C 1003.08 1354.04 1002.81 1360.05 1003.03 1365.43 C 1004.36 1397.59 1000.77 1434.53 1004.07 1466.2 C 1009.24 1515.86 1050.47 1553.3 1084 1586.06 C 1095.76 1597.54 1108.92 1608.28 1113.38 1625.03 C 1120.62 1651.91 1102.39 1678.51 1075.6 1683.85 C 1060.73 1686.82 1046.61 1686.28 1031.7 1685.93 C 959.683 1684.1 889.49 1662.89 828.509 1624.53 C 729.972 1564.15 659.864 1466.68 633.973 1354.06 C 617.219 1280.05 614.132 1190.8 669.883 1132.15 C 691.765 1109.14 723.077 1089.9 754.187 1083.06 C 742.883 1082.53 731.953 1082.94 720.499 1082.19 C 715.592 1081.9 708.179 1082.1 703.075 1082.07 C 703.338 1036.03 687.923 998.196 655.812 965.105 C 642.179 950.933 631.265 943.961 613.527 936.215 z"/>
<path transform="translate(0,0)" fill="rgb(6,109,125)" d="M 720.499 1082.19 C 741.971 1082.08 757.802 1081.32 778.555 1078.57 C 894.415 1063.2 1005.16 1142.8 1003 1264.81 C 1002.58 1288.44 1001.57 1325.47 1003.81 1348.7 C 1003.08 1354.04 1002.81 1360.05 1003.03 1365.43 C 1004.36 1397.59 1000.77 1434.53 1004.07 1466.2 C 1009.24 1515.86 1050.47 1553.3 1084 1586.06 C 1095.76 1597.54 1108.92 1608.28 1113.38 1625.03 C 1120.62 1651.91 1102.39 1678.51 1075.6 1683.85 C 1060.73 1686.82 1046.61 1686.28 1031.7 1685.93 C 959.683 1684.1 889.49 1662.89 828.509 1624.53 C 729.972 1564.15 659.864 1466.68 633.973 1354.06 C 617.219 1280.05 614.132 1190.8 669.883 1132.15 C 691.765 1109.14 723.077 1089.9 754.187 1083.06 C 742.883 1082.53 731.953 1082.94 720.499 1082.19 z"/>
<path transform="translate(0,0)" fill="rgb(46,149,147)" d="M 613.527 936.215 C 614.222 919.686 614.756 902.994 617.588 886.665 C 627.608 828.884 658.552 775.194 701.545 735.614 C 782.889 660.727 904.317 635.576 1011.98 640.2 C 1054.7 642.034 1168.17 659.045 1196.69 689.987 C 1205.39 699.424 1209.97 711.68 1209.18 724.528 C 1208.47 736.165 1204.29 746.659 1197.67 756.164 C 1187.28 771.101 1172.11 784.055 1159.29 796.977 L 1095.8 860.719 C 1052.22 904.384 1013 943.292 999.305 1006.3 C 997.544 1014.41 996.159 1027.02 993.824 1034.31 C 991.399 1019.18 988.899 1002.18 983.9 987.784 C 968.401 943.817 936.088 907.797 894.056 887.632 C 807.684 846.237 698.064 876.419 655.812 965.105 C 642.179 950.933 631.265 943.961 613.527 936.215 z"/>
<path transform="translate(0,0)" fill="rgb(0,47,61)" d="M 784.911 913.179 C 796.754 912.078 800.562 912.939 811.739 916.115 C 803.326 920.496 796.207 926.837 798.655 937.38 C 799.713 941.866 802.59 945.71 806.596 947.99 C 810.533 950.27 815.242 950.806 819.592 949.471 C 826.31 947.373 828.311 943.597 831.618 937.837 C 836.814 958.792 833.886 972.467 817.289 987.142 C 804.451 995.987 788.399 998.582 774.137 991.423 C 763.718 986.164 755.944 976.823 752.665 965.621 C 749.491 954.455 751.038 942.476 756.944 932.482 C 763.596 921.43 772.882 916.237 784.911 913.179 z"/>
<path transform="translate(0,0)" fill="rgb(252,183,57)" d="M 994.222 1100.82 L 994.49 1100 C 995.331 1097.37 995.62 1095.67 996.16 1093.03 C 1006.42 1043.04 1045.51 1011.6 1080.25 976.491 L 1190.62 865.606 L 1299.39 756.33 C 1319.4 736.241 1345.75 706.66 1368.49 691.175 C 1433.03 647.221 1530.53 657.227 1576.1 724.452 C 1596.16 754.418 1603.41 791.157 1596.24 826.495 C 1586.88 874.948 1562.52 897.242 1529.42 930.22 L 1477.61 982.01 L 1289.07 1170.52 C 1282.66 1176.94 1233.64 1224.23 1232.07 1227.14 C 1230.78 1227.78 1213.81 1240.26 1210.81 1242.24 C 1186.57 1258.23 1157.97 1266.29 1128.95 1265.32 C 1092.04 1264.25 1057.06 1248.57 1031.7 1221.73 C 996.227 1184.03 992.799 1149.29 994.222 1100.82 z"/>
<path transform="translate(0,0)" fill="rgb(252,183,57)" d="M 992.931 341.415 C 1010.39 341.192 1027.22 347.877 1039.77 360.014 C 1070.09 388.922 1063.39 430.379 1063.93 467.952 C 1064.07 477.781 1065.93 488.513 1073.86 495.511 C 1098.41 517.161 1126.21 484.596 1148.1 472.688 C 1161.18 464.664 1174.79 458.636 1190.38 457.809 C 1222.76 456.093 1251.33 483.45 1250.78 516.115 C 1250.25 547.836 1226.24 579.461 1204.87 600.966 C 1176.93 629.082 1150.91 621.035 1117.27 611.901 C 1103.61 608.317 1089.84 605.152 1075.99 602.412 C 1053.26 597.916 1020.23 595.305 996.812 594.928 C 958.197 594.902 919.707 599.315 882.099 608.08 C 851.975 614.838 817.287 632.074 789.611 608.503 C 756.995 580.725 715.507 521.145 749.695 479.75 C 757.414 470.447 767.778 463.709 779.414 460.43 C 832.969 444.896 865.627 506.712 898.495 502.772 C 909.602 501.441 918.319 493.155 921.59 482.663 C 926.657 466.406 921.892 430.321 924.222 410.798 C 926.173 394.442 931.966 378.315 942.662 365.612 C 956.6 349.06 971.747 343.273 992.931 341.415 z"/>
<path transform="translate(0,0)" fill="rgb(252,183,57)" d="M 703.075 1082.07 C 658.79 1082.52 614.463 1082.07 570.173 1082.06 C 544.918 1082.05 505.825 1084.94 482.266 1079.44 C 471.971 1077.04 461.251 1072.43 455.751 1062.86 C 452.193 1056.67 452.006 1049.54 454.141 1042.83 C 462.365 1016.99 545.54 956.092 571.46 942.293 C 584.689 935.25 598.849 931.732 613.527 936.215 C 631.265 943.961 642.179 950.933 655.812 965.105 C 687.923 998.196 703.338 1036.03 703.075 1082.07 z"/>
</svg>